<svg viewBox="0 0 16 16" fill="none" xmlns="http://www.w3.org/2000/svg">
<rect fill="white" fill-opacity="0.01"/>
<path d="M12.6886 10.8325C14.177 9.5042 14.9995 7.9992 14.9995 7.9992C14.9995 7.9992 12.3745 3.1867 7.99951 3.1867C7.15916 3.1896 6.32831 3.3647 5.55826 3.7012L6.23201 4.37583C6.79852 4.16946 7.39659 4.06317 7.99951 4.0617C9.85451 4.0617 11.3936 5.0837 12.5215 6.21158C13.0643 6.75731 13.5509 7.35619 13.974 7.9992C13.9233 8.07533 13.8673 8.15933 13.8034 8.2512C13.5103 8.6712 13.0771 9.2312 12.5215 9.78683C12.3771 9.9312 12.2266 10.0738 12.0691 10.2121L12.6886 10.8325Z" fill="#6C757D"/>
<path d="M10.8844 9.0282C11.0796 8.48206 11.1158 7.89171 10.9887 7.32582C10.8615 6.75993 10.5763 6.24179 10.1662 5.83167C9.75605 5.42155 9.2379 5.13633 8.67202 5.00918C8.10613 4.88203 7.51577 4.91819 6.96964 5.11345L7.68976 5.83358C8.02603 5.78545 8.36889 5.81629 8.69117 5.92367C9.01345 6.03105 9.3063 6.21201 9.5465 6.45221C9.78671 6.69242 9.96767 6.98526 10.075 7.30754C10.1824 7.62982 10.2133 7.97268 10.1651 8.30895L10.8844 9.0282ZM8.30926 10.1648L9.02851 10.8841C8.48237 11.0793 7.89202 11.1155 7.32613 10.9884C6.76024 10.8612 6.2421 10.576 5.83198 10.1659C5.42186 9.75574 5.13663 9.2376 5.00949 8.67171C4.88234 8.10582 4.9185 7.51547 5.11376 6.96933L5.83389 7.68945C5.78576 8.02572 5.8166 8.36858 5.92398 8.69087C6.03136 9.01315 6.21232 9.30599 6.45252 9.54619C6.69272 9.7864 6.98557 9.96736 7.30785 10.0747C7.63013 10.1821 7.97299 10.213 8.30926 10.1648Z" fill="#6C757D"/>
<path d="M3.93076 5.78545C3.77326 5.92545 3.62189 6.0672 3.47751 6.21158C2.9347 6.75731 2.44809 7.35619 2.02501 7.9992L2.19564 8.2512C2.48876 8.6712 2.92189 9.2312 3.47751 9.78683C4.60539 10.9147 6.14539 11.9367 7.99951 11.9367C8.62601 11.9367 9.21576 11.8203 9.76701 11.6217L10.4408 12.2972C9.67071 12.6337 8.83987 12.8088 7.99951 12.8117C3.62451 12.8117 0.999512 7.9992 0.999512 7.9992C0.999512 7.9992 1.82114 6.49333 3.31039 5.16595L3.92989 5.78633L3.93076 5.78545ZM12.9398 13.559L2.43976 3.05895L3.05926 2.43945L13.5593 12.9395L12.9398 13.559Z" fill="#6C757D"/>

</svg>
